<svg xmlns="http://www.w3.org/2000/svg" xmlns:xlink="http://www.w3.org/1999/xlink" version="1.1" id="Layer_1" x="0" y="0" width="700" height="394.9" viewBox="44 199.1 700 394.9" xml:space="preserve" enable-background="new 44 199.1 700 394.9">
  <path style="fill: black;" d="M93.8 416.3c2.8 8.9 6.8 13.4 11.9 13.4 7.9-1.1 11.9-5.6 11.9-13.4V200.6c7.7 19 18 33.3 30.9 42.8 -7.9 3.8-11.9 8.8-11.9 15v159.3c-0.3 10.3-2.4 17.9-6.2 22.8 -2.3 3.4-6.4 6.8-12.4 10.3v87.4c0 9-1 16.9-3.1 23.7 -7 21.3-20.5 32-40.2 32 -4.6-0.3-9.3-2-13.9-5.2 -10.5-6.4-15.8-19.3-16-38.7v-5.2c6 19.1 17 28.6 33 28.6 12.7 0 19.9-11.6 21.7-34.8v-82.8l-7.9-4.6c-11.3-6.5-17.1-17.7-17.4-33.5v-98.5c0-5.3-3.8-10.1-11.3-14.4 13.4-7.7 23.8-21.9 30.9-42.7V416.3zM212.2 414.2v72.7H224V506h-91.8c0-38.2 12.2-62.8 36.6-73.8 5.5-2.8 17.2-7.4 35.1-13.9L212.2 414.2zM193.1 487v-41.8c-16 6.2-26.5 13.1-31.5 20.6 -3.2 4.6-5.8 11.6-7.7 21.1h39.2V487zM258.6 261.8v247.6c0 26.6 8.1 43.6 24.2 51.1l-7.7 1c-14.4 0-25.1-10.1-32-30.4 -2.4-7.7-3.6-16.5-3.6-26.3v-179c0-9-4.1-16.2-12.4-21.7C240.6 296.4 251 282.4 258.6 261.8zM295.7 261.8v247.6c0 26.6 8.1 43.6 24.2 51.1l-7.7 1c-14.4 0-25.1-10.1-32-30.4 -2.4-7.7-3.6-16.5-3.6-26.3v-179c0-9-4.1-16.2-12.4-21.7C277.7 296.4 288.1 282.4 295.7 261.8zM390.7 414.2v72.7h11.9V506h-91.8c0-38.2 12.2-62.8 36.6-73.8 5.5-2.8 17.2-7.4 35.1-13.9L390.7 414.2zM371.6 487v-41.8c-16 6.2-26.5 13.1-31.5 20.6 -3.2 4.6-5.8 11.6-7.7 21.1h39.2V487zM509 401.8v85.1h23.7v-85.1c8.3 20.9 18.6 35.3 30.9 43.3 -7.9 3.6-11.9 8.8-11.9 15.5V506h-61.9v-44.4c-0.2-7.4-4.1-12.9-11.9-16.5C490.7 437.2 501 422.7 509 401.8zM711 573.6c-12.7 0-19.9-11.6-21.7-34.8V456l-0.4-0.1c4-7.5 12.5-11.2 23.1-11.2 7.9 0 14.4 4.1 19.6 12.4l1.3-3.5 0.1-2.5v-2.4l-0.8-1.9 -1.2-2.1 -5.7-8.8c11.5-11.9 15.6-23 12.4-33.5 -1.2 5.2-9.2 11-23.9 17.3s-24.7 12.5-29.7 18.5V199.1c-7 21.1-17.5 35.2-31.5 42.3 8.3 3.7 12.4 10.7 12.4 21.1v224.4h-12.4 -11.9V456c0-13.8-3.7-23.1-11-27.7 -10.8-6.6-17.3-13.4-19.5-20.2 -3 6.9-9.9 13.6-20.6 20.1 -6.9 4.6-10.3 13.7-10.3 27.3V487H567v19.1h31.5v-51.7c0-7.1 4-10.7 12-10.7 7.5 0 11.2 3.6 11.2 10.8v51.6h30.9 18.1v32.3c0 9 1 16.9 3.1 23.7 7.1 21.3 20.5 32 40.2 32 4.6-0.3 9.3-2 13.9-5.2 10.5-6.4 15.8-19.3 16-38.7V545C738 564.1 727 573.6 711 573.6zM463 276.5c-7.5-4-12.1-8.8-13.9-14.4 -1.6 5.7-6.4 10.5-14.2 14.6 -11.2 6-16.9 15.6-17.3 28.8v201.1l-0.3 2.4c0 26.6-8.1 43.6-24.2 51.1l7.7 1c14.4 0 25.1-10.1 32-30.4 2.2-7.2 3.4-15.3 3.6-24.3l0.3-0.2v-56.7c7.2 5.7 11.3 10.3 12.4 13.9 0.9-3.6 5-7.6 12.5-11.9 11.6-7.7 17.4-18.1 17.4-31.5V305.4C479 292.5 473.7 282.9 463 276.5zM460.4 414.7c0 8.6-3.8 12.9-11.3 12.9 -8.3 0-12.4-4.8-12.4-14.4V309.4c0-7.8 4.1-11.7 12.4-11.7 7.6 0 11.3 4 11.3 11.9V414.7z"/>
</svg>
