<?xml version="1.0" encoding="utf-8"?>
<!-- Generator: Adobe Illustrator 19.0.0, SVG Export Plug-In . SVG Version: 6.00 Build 0)  -->
<svg version="1.1" id="Layer_1" xmlns="http://www.w3.org/2000/svg" xmlns:xlink="http://www.w3.org/1999/xlink" x="0px" y="0px"
	 width="206px" height="393.3px" viewBox="44 319.7 206 393.3" style="enable-background:new 44 319.7 206 393.3;"
	 xml:space="preserve">
<path d="M93,535.4c2.8,8.9,6.8,13.4,11.9,13.4c7.9-1.1,11.9-5.6,11.9-13.4V319.7c7.7,19,18,33.3,30.9,42.8
	c-7.9,3.8-11.9,8.8-11.9,15v159.3c-0.3,10.3-2.4,17.9-6.2,22.8c-2.3,3.4-6.4,6.8-12.4,10.3v87.4c0,9-1,16.9-3.1,23.7
	c-7,21.3-20.5,32-40.2,32c-4.6-0.3-9.3-2-13.9-5.2c-10.5-6.4-15.8-19.3-16-38.7v-5.2c6,19.1,17,28.6,33,28.6
	c12.7,0,19.9-11.6,21.7-34.8v-82.8l-7.9-4.6c-11.3-6.5-17.1-17.7-17.4-33.5v-98.5c0-5.3-3.8-10.1-11.3-14.4
	c13.4-7.7,23.8-21.9,30.9-42.7C93,381.2,93,535.4,93,535.4z"/>
<path d="M205.5,395.6c-7.5-4-12.1-8.8-13.9-14.4c-1.6,5.7-6.4,10.5-14.2,14.6c-11.2,6-16.9,15.6-17.3,28.8v201.1l-0.3,2.4
	c0,26.6-8.1,43.6-24.2,51.1l7.7,1c14.4,0,25.1-10.1,32-30.4c2.2-7.2,3.4-15.3,3.6-24.3l0.3-0.2v-56.7c7.2,5.7,11.3,10.3,12.4,13.9
	c0.9-3.6,5-7.6,12.5-11.9c11.6-7.7,17.4-18.1,17.4-31.5V424.5C221.5,411.6,216.2,402,205.5,395.6z M202.9,533.8
	c0,8.6-3.8,12.9-11.3,12.9c-8.3,0-12.4-4.8-12.4-14.4V428.5c0-7.8,4.1-11.7,12.4-11.7c7.6,0,11.3,4,11.3,11.9V533.8z"/>
</svg>
