<svg id="Layer_1" data-name="Layer 1" xmlns="http://www.w3.org/2000/svg" viewBox="0 0 699.21 394.9"><title>logo2</title><path d="M49.79,217.19Q54,230.6,61.66,230.6q11.86-1.68,11.86-13.41V1.55Q85,30,104.47,44.36,92.6,50,92.6,59.32V218.6q-.52,15.47-6.19,22.83-3.48,5-12.38,10.32v87.45a81.83,81.83,0,0,1-3.09,23.73q-10.57,32-40.23,32a27.28,27.28,0,0,1-13.93-5.16Q1,380.2.79,351.05V345.9q9,28.63,33,28.63,19.08,0,21.66-34.82V256.9l-7.87-4.64q-16.9-9.8-17.41-33.53V120.22q0-8-11.35-14.44Q39.09,94.17,49.79,63Z" transform="translate(-0.79)"/><path d="M168.16,215.12v72.73H180v19.08H88.21q0-57.26,36.62-73.76,8.25-4.13,35.07-13.93Zm-19.09,72.73V246.07q-24,9.28-31.46,20.63-4.77,6.84-7.74,21.15Z" transform="translate(-0.79)"/><path d="M214.61,62.7V310.29q0,39.85,24.24,51.06l-7.74,1q-21.66,0-32-30.43a88.46,88.46,0,0,1-3.61-26.31v-179q0-13.54-12.38-21.66Q203.26,93.52,214.61,62.7Z" transform="translate(-0.79)"/><path d="M251.71,62.7V310.29q0,39.85,24.24,51.06l-7.74,1q-21.66,0-32-30.43a88.46,88.46,0,0,1-3.61-26.31v-179q0-13.54-12.38-21.66Q240.37,93.52,251.71,62.7Z" transform="translate(-0.79)"/><path d="M346.67,215.12v72.73h11.86v19.08H266.72q0-57.26,36.62-73.76,8.25-4.13,35.07-13.93Zm-19.09,72.73V246.07q-24,9.28-31.46,20.63-4.77,6.84-7.74,21.15Z" transform="translate(-0.79)"/><path d="M465,202.74v85.11H488.7V202.74q12.38,31.33,30.95,43.33-11.87,5.42-11.86,15.47v45.39h-61.9V262.58q-.26-11.09-11.86-16.5Q453,234.08,465,202.74Z" transform="translate(-0.79)"/><path d="M667,374.52q-19.08,0-21.66-34.82V256.9l-.42-.12c4-7.48,12.46-11.23,23.07-11.23q11.86,0,19.6,12.38l1.29-3.48L689,252v-2.45l-.77-1.93-1.16-2.06-5.67-8.77q17.27-17.8,12.38-33.53-1.81,7.87-23.92,17.34t-29.72,18.5V0q-10.57,31.59-31.46,42.3Q621,47.84,621,63.44V287.85H596.79V256.9q0-20.76-11-27.73-16.25-9.93-19.47-20.24-4.51,10.32-20.63,20.12-10.32,6.84-10.32,27.34v31.47H523v19.08H554.5V255.23q0-10.7,12-10.7,11.22,0,11.22,10.83v51.58h49v32.25a81.94,81.94,0,0,0,3.09,23.73q10.58,32,40.23,32A27.29,27.29,0,0,0,684,389.74q15.73-9.55,16-38.69V345.9Q691,374.52,667,374.52Z" transform="translate(-0.79)"/><path d="M419,77.4Q407.78,71.47,405.08,63q-2.45,8.51-14.18,14.57-16.77,9-17.28,28.76V307.36l-.25,2.44q0,39.85-24.24,51.06l7.74,1q21.66,0,32-30.43a86.77,86.77,0,0,0,3.58-24.28l.29-.24V250.2q10.83,8.51,12.38,13.93,1.29-5.42,12.51-11.86Q435,240.78,435,220.8V106.29Q435,86.95,419,77.4Zm-2.58,138.24q0,12.9-11.35,12.89-12.38,0-12.38-14.44V110.29q0-11.73,12.38-11.73,11.34,0,11.35,11.86Z" transform="translate(-0.79)"/></svg>