<?xml version="1.0" encoding="utf-8"?>
<!-- Generator: Adobe Illustrator 21.1.0, SVG Export Plug-In . SVG Version: 6.00 Build 0)  -->
<svg version="1.1" id="Layer_1" xmlns="http://www.w3.org/2000/svg" xmlns:xlink="http://www.w3.org/1999/xlink" x="0px" y="0px"
	 viewBox="0 0 700 394.9" style="enable-background:new 0 0 700 394.9;" xml:space="preserve">
<style type="text/css">
	.st0{fill:#FFFFFF;}
</style>
<path class="st0" d="M49.8,217.2c2.8,8.9,6.8,13.4,11.9,13.4c7.9-1.1,11.9-5.6,11.9-13.4V1.5c7.7,19,18,33.3,30.9,42.8
	c-7.9,3.8-11.9,8.8-11.9,15v159.3c-0.3,10.3-2.4,17.9-6.2,22.8c-2.3,3.4-6.4,6.8-12.4,10.3v87.4c0,9-1,16.9-3.1,23.7
	c-7,21.3-20.5,32-40.2,32c-4.6-0.3-9.3-2-13.9-5.2c-10.5-6.4-15.8-19.3-16-38.7v-5.2c6,19.1,17,28.6,33,28.6
	c12.7,0,19.9-11.6,21.7-34.8v-82.8l-7.9-4.6c-11.3-6.5-17.1-17.7-17.4-33.5v-98.5c0-5.3-3.8-10.1-11.3-14.4
	C32.3,98,42.7,83.8,49.8,63V217.2z"/>
<path class="st0" d="M168.2,215.1v72.7H180v19.1H88.2c0-38.2,12.2-62.8,36.6-73.8c5.5-2.8,17.2-7.4,35.1-13.9L168.2,215.1z
	 M149.1,287.9v-41.8c-16,6.2-26.5,13.1-31.5,20.6c-3.2,4.6-5.8,11.6-7.7,21.1H149.1z"/>
<path class="st0" d="M214.6,62.7v247.6c0,26.6,8.1,43.6,24.2,51.1l-7.7,1c-14.4,0-25.1-10.1-32-30.4c-2.4-7.7-3.6-16.5-3.6-26.3
	v-179c0-9-4.1-16.2-12.4-21.7C196.6,97.3,207,83.3,214.6,62.7z"/>
<path class="st0" d="M251.7,62.7v247.6c0,26.6,8.1,43.6,24.2,51.1l-7.7,1c-14.4,0-25.1-10.1-32-30.4c-2.4-7.7-3.6-16.5-3.6-26.3
	v-179c0-9-4.1-16.2-12.4-21.7C233.7,97.3,244.1,83.3,251.7,62.7z"/>
<path class="st0" d="M346.7,215.1v72.7h11.9v19.1h-91.8c0-38.2,12.2-62.8,36.6-73.8c5.5-2.8,17.2-7.4,35.1-13.9L346.7,215.1z
	 M327.6,287.9v-41.8c-16,6.2-26.5,13.1-31.5,20.6c-3.2,4.6-5.8,11.6-7.7,21.1H327.6z"/>
<path class="st0" d="M465,202.7v85.1h23.7v-85.1c8.3,20.9,18.6,35.3,30.9,43.3c-7.9,3.6-11.9,8.8-11.9,15.5v45.4h-61.9v-44.4
	c-0.2-7.4-4.1-12.9-11.9-16.5C446.7,238.1,457,223.6,465,202.7z"/>
<path class="st0" d="M667,374.5c-12.7,0-19.9-11.6-21.7-34.8v-82.8l-0.4-0.1c4-7.5,12.5-11.2,23.1-11.2c7.9,0,14.4,4.1,19.6,12.4
	l1.3-3.5l0.1-2.5v-2.4l-0.8-1.9l-1.2-2.1l-5.7-8.8c11.5-11.9,15.6-23,12.4-33.5c-1.2,5.2-9.2,11-23.9,17.3
	c-14.7,6.3-24.7,12.5-29.7,18.5V0c-7,21.1-17.5,35.2-31.5,42.3C616.9,46,621,53,621,63.4v224.4h-12.4h-11.9v-30.9
	c0-13.8-3.7-23.1-11-27.7c-10.8-6.6-17.3-13.4-19.5-20.2c-3,6.9-9.9,13.6-20.6,20.1c-6.9,4.6-10.3,13.7-10.3,27.3v31.5H523v19.1
	h31.5v-51.7c0-7.1,4-10.7,12-10.7c7.5,0,11.2,3.6,11.2,10.8v51.6h30.9h18.1v32.3c0,9,1,16.9,3.1,23.7c7.1,21.3,20.5,32,40.2,32
	c4.6-0.3,9.3-2,13.9-5.2c10.5-6.4,15.8-19.3,16-38.7v-5.2C694,365,683,374.5,667,374.5z"/>
<path class="st0" d="M419,77.4c-7.5-4-12.1-8.8-13.9-14.4c-1.6,5.7-6.4,10.5-14.2,14.6c-11.2,6-16.9,15.6-17.3,28.8v201.1l-0.3,2.4
	c0,26.6-8.1,43.6-24.2,51.1l7.7,1c14.4,0,25.1-10.1,32-30.4c2.2-7.2,3.4-15.3,3.6-24.3l0.3-0.2v-56.7c7.2,5.7,11.3,10.3,12.4,13.9
	c0.9-3.6,5-7.6,12.5-11.9c11.6-7.7,17.4-18.1,17.4-31.5V106.3C435,93.4,429.7,83.8,419,77.4z M416.4,215.6c0,8.6-3.8,12.9-11.3,12.9
	c-8.3,0-12.4-4.8-12.4-14.4V110.3c0-7.8,4.1-11.7,12.4-11.7c7.6,0,11.3,4,11.3,11.9V215.6z"/>
</svg>
